<?xml version="1.0" encoding="UTF-8" standalone="no"?>
<!DOCTYPE svg PUBLIC "-//W3C//DTD SVG 1.1//EN" "http://www.w3.org/Graphics/SVG/1.1/DTD/svg11.dtd">
<svg width="100%" height="100%" viewBox="0 0 233 462" version="1.1" xmlns="http://www.w3.org/2000/svg" xmlns:xlink="http://www.w3.org/1999/xlink" xml:space="preserve" style="fill-rule:evenodd;clip-rule:evenodd;stroke-linejoin:round;stroke-miterlimit:1.41421;">
    <g transform="matrix(1,0,0,1,-5224.3,-1894.83)">
        <g id="beans" transform="matrix(0.737944,0,0,1.0026,1430.12,-4.92228)">
            <rect x="5141.56" y="1894.83" width="315.742" height="460.803" style="fill:none;"/>
            <clipPath id="_clip1">
                <rect x="5141.56" y="1894.83" width="315.742" height="460.803"/>
            </clipPath>
            <g clip-path="url(#_clip1)">
                <g transform="matrix(-30.2626,-1.23685e-15,-1.67991e-15,22.2811,13195.7,-12769.8)">
                    <path d="M258.837,665.655C256.198,666.501 254.992,670.103 256.143,673.693C257.295,677.282 260.373,679.51 263.011,678.663C265.649,677.816 266.856,674.215 265.704,670.625C264.552,667.035 261.475,664.808 258.837,665.655ZM263.474,677.597C263.52,677.632 263.559,677.657 263.586,677.67L263.699,677.724C263.709,677.698 263.713,677.661 263.713,677.616C263.691,677.629 263.666,677.639 263.64,677.643C263.601,677.649 263.566,677.642 263.529,677.63C263.509,677.621 263.491,677.609 263.474,677.597ZM263.665,677.226C263.579,676.779 263.402,676.195 263.342,676.067C263.121,675.59 262.923,674.976 262.792,674.469C262.115,671.863 261.04,668.641 259.185,666.497C259.14,666.445 258.609,666.057 258.609,666.057L258.59,666.418C258.6,666.592 258.614,666.768 258.633,666.944C258.657,666.951 258.677,666.96 258.7,666.973C258.763,667.022 258.76,667.024 258.838,667.094C259.135,667.368 259.416,667.655 259.674,667.966C260.07,668.444 260.409,668.966 260.692,669.518C260.844,669.814 260.979,670.117 261.102,670.426C261.179,670.621 261.247,670.819 261.325,671.013C261.35,671.074 261.376,671.134 261.403,671.193C261.535,671.479 261.68,671.759 261.816,672.043C261.864,672.148 261.912,672.254 261.956,672.361C262,672.471 262.042,672.582 262.077,672.695C262.174,673.006 262.236,673.329 262.288,673.651C262.36,674.091 262.408,674.535 262.471,674.976C262.491,675.104 262.512,675.232 262.534,675.36C262.61,675.759 262.707,676.152 262.866,676.527C262.908,676.626 262.954,676.724 263.004,676.82C263.02,676.85 263.047,676.909 263.068,676.936C263.084,676.953 263.104,676.965 263.123,676.977C263.249,677.048 263.388,677.094 263.52,677.151C263.567,677.173 263.613,677.196 263.658,677.222L263.665,677.226ZM258.712,667.545C259.109,670.11 260.298,672.799 261.535,674.86C261.804,675.309 262.104,675.88 262.29,676.372C262.306,676.414 262.362,676.49 262.442,676.587C262.263,676.131 262.16,675.652 262.081,675.169C262.015,674.73 261.964,674.288 261.899,673.848C261.845,673.502 261.786,673.153 261.681,672.818C261.617,672.612 261.531,672.415 261.441,672.219C261.324,671.975 261.201,671.734 261.083,671.49C261.024,671.363 260.966,671.236 260.915,671.105C260.846,670.931 260.785,670.754 260.717,670.579C260.665,670.451 260.612,670.325 260.557,670.198C260.296,669.62 259.989,669.066 259.611,668.557C259.34,668.193 259.038,667.858 258.712,667.545Z" style="fill:rgb(225,241,248);"/>
                </g>
                <g transform="matrix(11.1159,-4.54312e-16,6.17054e-16,8.18416,2299.16,-3551.53)">
                    <path d="M258.837,665.655C256.198,666.501 254.992,670.103 256.143,673.693C257.295,677.282 260.373,679.51 263.011,678.663C265.649,677.816 266.856,674.215 265.704,670.625C264.552,667.035 261.475,664.808 258.837,665.655ZM263.474,677.597C263.52,677.632 263.559,677.657 263.586,677.67L263.699,677.724C263.709,677.698 263.713,677.661 263.713,677.616C263.691,677.629 263.666,677.639 263.64,677.643C263.601,677.649 263.566,677.642 263.529,677.63C263.509,677.621 263.491,677.609 263.474,677.597ZM263.665,677.226C263.579,676.779 263.402,676.195 263.342,676.067C263.121,675.59 262.923,674.976 262.792,674.469C262.115,671.863 261.04,668.641 259.185,666.497C259.14,666.445 258.609,666.057 258.609,666.057L258.59,666.418C258.6,666.592 258.614,666.768 258.633,666.944C258.657,666.951 258.677,666.96 258.7,666.973C258.763,667.022 258.76,667.024 258.838,667.094C259.135,667.368 259.416,667.655 259.674,667.966C260.07,668.444 260.409,668.966 260.692,669.518C260.844,669.814 260.979,670.117 261.102,670.426C261.179,670.621 261.247,670.819 261.325,671.013C261.35,671.074 261.376,671.134 261.403,671.193C261.535,671.479 261.68,671.759 261.816,672.043C261.864,672.148 261.912,672.254 261.956,672.361C262,672.471 262.042,672.582 262.077,672.695C262.174,673.006 262.236,673.329 262.288,673.651C262.36,674.091 262.408,674.535 262.471,674.976C262.491,675.104 262.512,675.232 262.534,675.36C262.61,675.759 262.707,676.152 262.866,676.527C262.908,676.626 262.954,676.724 263.004,676.82C263.02,676.85 263.047,676.909 263.068,676.936C263.084,676.953 263.104,676.965 263.123,676.977C263.249,677.048 263.388,677.094 263.52,677.151C263.567,677.173 263.613,677.196 263.658,677.222L263.665,677.226ZM258.712,667.545C259.109,670.11 260.298,672.799 261.535,674.86C261.804,675.309 262.104,675.88 262.29,676.372C262.306,676.414 262.362,676.49 262.442,676.587C262.263,676.131 262.16,675.652 262.081,675.169C262.015,674.73 261.964,674.288 261.899,673.848C261.845,673.502 261.786,673.153 261.681,672.818C261.617,672.612 261.531,672.415 261.441,672.219C261.324,671.975 261.201,671.734 261.083,671.49C261.024,671.363 260.966,671.236 260.915,671.105C260.846,670.931 260.785,670.754 260.717,670.579C260.665,670.451 260.612,670.325 260.557,670.198C260.296,669.62 259.989,669.066 259.611,668.557C259.34,668.193 259.038,667.858 258.712,667.545Z" style="fill:rgb(225,241,248);"/>
                </g>
            </g>
        </g>
    </g>
</svg>
