<?xml version="1.0" encoding="UTF-8" standalone="no"?>
<!DOCTYPE svg PUBLIC "-//W3C//DTD SVG 1.1//EN" "http://www.w3.org/Graphics/SVG/1.1/DTD/svg11.dtd">
<svg width="100%" height="100%" viewBox="0 0 2282 382" version="1.1" xmlns="http://www.w3.org/2000/svg" xmlns:xlink="http://www.w3.org/1999/xlink" xml:space="preserve" style="fill-rule:evenodd;clip-rule:evenodd;stroke-linejoin:round;stroke-miterlimit:1.41421;">
    <g transform="matrix(1,0,0,1,-8410.84,-2963.1)">
        <g id="bg-footer" transform="matrix(1.72731,0,0,0.93716,-2574.61,186.2)">
            <rect x="6359.85" y="2963.1" width="1320.93" height="407.614" style="fill:none;"/>
            <clipPath id="_clip1">
                <rect x="6359.85" y="2963.1" width="1320.93" height="407.614"/>
            </clipPath>
            <g clip-path="url(#_clip1)">
                <g transform="matrix(0.695964,1.89092e-19,-6.28486e-20,-0.784875,6363.74,3893.56)">
                    <path d="M1892.4,1041.32L1892.4,666.148L-3.991,666.148L-5.594,1091.14C-5.594,1091.14 114.3,1013.69 314.482,1026.46C471.484,1036.47 587.554,1185.78 757.636,1185.48C1063.16,1184.95 1243.99,996.403 1545.96,968.794C1793.05,946.203 1892.4,1041.32 1892.4,1041.32Z" style="fill:rgb(183,172,152);"/>
                </g>
            </g>
        </g>
    </g>
</svg>
