<?xml version="1.0" encoding="UTF-8" standalone="no"?>
<!DOCTYPE svg PUBLIC "-//W3C//DTD SVG 1.1//EN" "http://www.w3.org/Graphics/SVG/1.1/DTD/svg11.dtd">
<svg width="100%" height="100%" viewBox="0 0 1028 973" version="1.1" xmlns="http://www.w3.org/2000/svg" xmlns:xlink="http://www.w3.org/1999/xlink" xml:space="preserve" style="fill-rule:evenodd;clip-rule:evenodd;stroke-linejoin:round;stroke-miterlimit:1.41421;">
    <g transform="matrix(1,0,0,1,-5086.27,-498.67)">
        <g id="machine" transform="matrix(0.774444,0,0,0.907973,3779.99,788.845)">
            <rect x="1686.74" y="-319.586" width="1326.47" height="1071.62" style="fill:none;"/>
            <clipPath id="_clip1">
                <rect x="1686.74" y="-319.586" width="1326.47" height="1071.62"/>
            </clipPath>
            <g clip-path="url(#_clip1)">
                <g transform="matrix(1.29125,0,7.16787e-17,1.10135,2431.16,-92.6193)">
                    <path d="M251.433,683.349C250.129,684.529 250.373,686.928 251.978,688.703C253.583,690.478 255.946,690.961 257.25,689.781C258.555,688.602 258.311,686.203 256.705,684.428C255.1,682.653 252.738,682.17 251.433,683.349ZM257.383,688.992C257.375,689.003 257.367,689.012 257.356,689.02C257.334,689.038 257.308,689.046 257.28,689.049C257.27,689.048 257.261,689.048 257.251,689.046C257.282,689.053 257.306,689.056 257.323,689.056L257.403,689.058C257.401,689.041 257.394,689.018 257.383,688.992ZM257.253,688.779C257.086,688.543 256.831,688.252 256.763,688.193C256.51,687.975 256.235,687.671 256.027,687.413C254.953,686.083 253.489,684.5 251.855,683.746C251.815,683.727 251.407,683.642 251.407,683.642L251.49,683.856C251.541,683.954 251.596,684.051 251.652,684.148C251.669,684.146 251.683,684.146 251.7,684.148C251.769,684.165 251.838,684.19 251.905,684.213C252.026,684.254 252.147,684.3 252.266,684.351C252.743,684.553 253.186,684.826 253.587,685.155C253.82,685.346 254.032,685.557 254.244,685.769C254.305,685.827 254.367,685.882 254.43,685.937C254.562,686.047 254.696,686.154 254.827,686.265C254.894,686.323 254.894,686.322 254.96,686.382C255.025,686.444 255.089,686.506 255.149,686.574C255.267,686.707 255.372,686.852 255.472,686.999C255.664,687.28 255.834,687.574 256.019,687.859C256.064,687.928 256.111,687.996 256.158,688.063C256.301,688.26 256.456,688.448 256.638,688.611C256.685,688.653 256.716,688.678 256.765,688.717C256.782,688.731 256.812,688.757 256.832,688.767C256.846,688.773 256.86,688.774 256.875,688.777C256.979,688.785 257.084,688.773 257.189,688.774C257.21,688.775 257.232,688.777 257.253,688.779ZM251.855,684.474C252.756,685.855 254.147,687.099 255.402,687.968C255.675,688.157 255.998,688.409 256.234,688.645C256.254,688.665 256.306,688.695 256.378,688.729C256.155,688.513 255.971,688.262 255.799,688.004C255.63,687.744 255.472,687.476 255.302,687.217C255.179,687.034 255.052,686.848 254.898,686.69C254.701,686.488 254.475,686.318 254.259,686.137C254.192,686.079 254.192,686.079 254.126,686.02C253.997,685.897 253.874,685.768 253.745,685.645C253.681,685.586 253.617,685.528 253.552,685.47C253.178,685.15 252.773,684.874 252.327,684.666C252.19,684.602 252.05,684.544 251.907,684.493C251.89,684.486 251.872,684.48 251.855,684.474Z" style="fill:rgb(183,172,152);"/>
                </g>
                <g transform="matrix(1.29125,0,7.16787e-17,1.10135,2431.16,-92.6193)">
                    <path d="M289.618,679.488C290.923,680.668 290.678,683.067 289.073,684.842C287.468,686.617 285.105,687.1 283.801,685.92C282.496,684.74 282.741,682.341 284.346,680.566C285.951,678.791 288.314,678.308 289.618,679.488ZM283.669,685.131C283.657,685.157 283.65,685.179 283.649,685.197L283.728,685.195C283.745,685.195 283.77,685.191 283.8,685.185C283.791,685.186 283.781,685.187 283.771,685.187C283.755,685.186 283.755,685.186 283.739,685.182C283.71,685.171 283.686,685.156 283.669,685.131ZM289.399,680.287C289.456,680.19 289.51,680.092 289.561,679.994L289.645,679.78C289.645,679.78 289.236,679.866 289.196,679.884C287.563,680.639 286.098,682.221 285.025,683.552C284.816,683.81 284.541,684.114 284.288,684.332C284.221,684.39 283.966,684.681 283.799,684.917C283.821,684.914 283.843,684.913 283.863,684.913C283.959,684.909 284.055,684.92 284.151,684.917C284.173,684.916 284.2,684.916 284.22,684.906C284.266,684.876 284.31,684.838 284.351,684.804C284.476,684.699 284.59,684.582 284.695,684.458C285.019,684.075 285.256,683.628 285.53,683.21C285.579,683.137 285.629,683.065 285.68,682.994C285.787,682.849 285.898,682.708 286.027,682.582C286.233,682.38 286.467,682.209 286.685,682.02C286.747,681.965 286.746,681.965 286.807,681.908C286.891,681.824 286.975,681.738 287.06,681.655C287.125,681.592 287.192,681.531 287.259,681.47C287.439,681.311 287.625,681.16 287.823,681.022C288.124,680.812 288.447,680.633 288.786,680.489C288.904,680.439 289.025,680.393 289.147,680.351C289.214,680.328 289.282,680.303 289.351,680.286C289.368,680.284 289.367,680.284 289.384,680.285C289.389,680.285 289.394,680.286 289.399,680.287ZM289.197,680.613C289.179,680.619 289.162,680.625 289.144,680.631C288.947,680.705 288.753,680.786 288.566,680.882C288.284,681.026 288.016,681.197 287.766,681.39C287.583,681.531 287.409,681.684 287.243,681.844C287.157,681.927 287.074,682.013 286.99,682.097C286.926,682.158 286.86,682.217 286.792,682.276C286.66,682.386 286.526,682.493 286.395,682.604C286.332,682.658 286.332,682.658 286.271,682.713C286.212,682.77 286.153,682.826 286.099,682.887C285.97,683.033 285.857,683.194 285.75,683.356C285.578,683.614 285.421,683.882 285.252,684.142C285.205,684.214 285.157,684.284 285.108,684.354C284.975,684.536 284.834,684.711 284.673,684.868C284.745,684.833 284.797,684.803 284.817,684.783C285.053,684.548 285.376,684.295 285.649,684.106C286.904,683.238 288.296,681.993 289.197,680.613Z" style="fill:rgb(183,172,152);"/>
                </g>
                <g transform="matrix(1.29125,0,7.16787e-17,1.10135,2431.16,-92.6193)">
                    <path d="M258.837,665.655C256.198,666.501 254.992,670.103 256.143,673.693C257.295,677.282 260.373,679.51 263.011,678.663C265.649,677.816 266.856,674.215 265.704,670.625C264.552,667.035 261.475,664.808 258.837,665.655ZM263.474,677.597C263.52,677.632 263.559,677.657 263.586,677.67L263.699,677.724C263.709,677.698 263.713,677.661 263.713,677.616C263.691,677.629 263.666,677.639 263.64,677.643C263.601,677.649 263.566,677.642 263.529,677.63C263.509,677.621 263.491,677.609 263.474,677.597ZM263.665,677.226C263.579,676.779 263.402,676.195 263.342,676.067C263.121,675.59 262.923,674.976 262.792,674.469C262.115,671.863 261.04,668.641 259.185,666.497C259.14,666.445 258.609,666.057 258.609,666.057L258.59,666.418C258.6,666.592 258.614,666.768 258.633,666.944C258.657,666.951 258.677,666.96 258.7,666.973C258.763,667.022 258.76,667.024 258.838,667.094C259.135,667.368 259.416,667.655 259.674,667.966C260.07,668.444 260.409,668.966 260.692,669.518C260.844,669.814 260.979,670.117 261.102,670.426C261.179,670.621 261.247,670.819 261.325,671.013C261.35,671.074 261.376,671.134 261.403,671.193C261.535,671.479 261.68,671.759 261.816,672.043C261.864,672.148 261.912,672.254 261.956,672.361C262,672.471 262.042,672.582 262.077,672.695C262.174,673.006 262.236,673.329 262.288,673.651C262.36,674.091 262.408,674.535 262.471,674.976C262.491,675.104 262.512,675.232 262.534,675.36C262.61,675.759 262.707,676.152 262.866,676.527C262.908,676.626 262.954,676.724 263.004,676.82C263.02,676.85 263.047,676.909 263.068,676.936C263.084,676.953 263.104,676.965 263.123,676.977C263.249,677.048 263.388,677.094 263.52,677.151C263.567,677.173 263.613,677.196 263.658,677.222L263.665,677.226ZM258.712,667.545C259.109,670.11 260.298,672.799 261.535,674.86C261.804,675.309 262.104,675.88 262.29,676.372C262.306,676.414 262.362,676.49 262.442,676.587C262.263,676.131 262.16,675.652 262.081,675.169C262.015,674.73 261.964,674.288 261.899,673.848C261.845,673.502 261.786,673.153 261.681,672.818C261.617,672.612 261.531,672.415 261.441,672.219C261.324,671.975 261.201,671.734 261.083,671.49C261.024,671.363 260.966,671.236 260.915,671.105C260.846,670.931 260.785,670.754 260.717,670.579C260.665,670.451 260.612,670.325 260.557,670.198C260.296,669.62 259.989,669.066 259.611,668.557C259.34,668.193 259.038,667.858 258.712,667.545Z" style="fill:rgb(183,172,152);"/>
                </g>
                <g transform="matrix(1.29084,0,0,1.101,-492.793,-319.586)">
                    <path d="M2534.18,897.727C2534.59,888.916 2535.09,876.537 2535.11,868.745C2535.54,743.705 2536.3,177.223 2536.37,125.855C2535.42,125.39 2534.77,124.42 2534.77,123.297L2534.77,120.999L2520.64,120.999L2520.64,123.297C2520.64,124.871 2519.36,126.147 2517.78,126.147C2517.78,126.147 2517.78,126.147 2517.78,126.147C2516.21,126.147 2514.93,124.871 2514.93,123.297L2514.93,120.999L2512.03,120.999C2510.07,120.999 2508.24,120.042 2507.12,118.437C2506.01,116.854 2504.65,114.908 2503.83,113.74C2503.36,113.068 2503.11,112.268 2503.11,111.448L2503.11,108.098L2494.77,108.098C2492.98,108.098 2491.41,106.909 2490.92,105.186L2487.49,93.074L2278.58,93.074L2275.15,105.186C2274.66,106.909 2273.09,108.098 2271.3,108.098L2262.96,108.098L2262.96,111.448C2262.96,112.268 2262.71,113.068 2262.24,113.74C2261.42,114.908 2260.06,116.854 2258.95,118.437C2257.83,120.042 2256,120.999 2254.04,120.999L2251.14,120.999L2251.14,123.297C2251.14,124.871 2249.86,126.147 2248.29,126.147C2248.29,126.147 2248.28,126.147 2248.28,126.147C2246.71,126.147 2245.43,124.871 2245.43,123.297L2245.43,120.999L2231.3,120.999L2231.3,123.297C2231.3,124.871 2230.02,126.147 2228.45,126.147C2228.45,126.147 2228.45,126.147 2228.45,126.147C2226.87,126.147 2225.6,124.871 2225.6,123.297L2225.6,120.999L2222.69,120.999C2220.74,120.999 2218.9,120.042 2217.78,118.437C2216.67,116.854 2215.31,114.908 2214.49,113.74C2214.02,113.068 2213.77,112.268 2213.77,111.448L2213.77,108.098L2205.43,108.098C2203.64,108.098 2202.07,106.909 2201.58,105.186L2198.16,93.074L1989.24,93.074L1985.81,105.186C1985.32,106.909 1983.75,108.098 1981.96,108.098L1973.62,108.098L1973.62,111.448C1973.62,112.268 1973.37,113.068 1972.9,113.74C1972.08,114.908 1970.72,116.854 1969.62,118.437C1968.49,120.042 1966.66,120.999 1964.7,120.999L1961.8,120.999L1961.8,123.297C1961.8,124.871 1960.52,126.147 1958.95,126.147C1958.95,126.147 1958.95,126.147 1958.95,126.147C1957.37,126.147 1956.1,124.871 1956.1,123.297L1956.1,120.999L1941.96,120.999L1941.96,123.297C1941.96,124.871 1940.68,126.147 1939.11,126.147C1939.11,126.147 1939.11,126.147 1939.11,126.147C1937.53,126.147 1936.26,124.871 1936.26,123.297L1936.26,120.999L1933.36,120.999C1931.4,120.999 1929.56,120.042 1928.44,118.437C1927.33,116.854 1925.97,114.908 1925.15,113.74C1924.68,113.068 1924.43,112.268 1924.43,111.448L1924.43,108.098L1916.09,108.098C1914.3,108.098 1912.73,106.909 1912.24,105.186L1908.82,93.074L1841.57,93.074C1841.38,95.692 1841.18,100.116 1841.74,102.165C1842.49,104.894 1846.19,106.287 1846.67,109.076C1847.32,112.906 1846.94,124.546 1846.75,129.177C1846.72,130.254 1845.83,131.107 1844.76,131.107C1841.35,131.107 1834.3,131.107 1830.9,131.106C1829.82,131.106 1828.94,130.253 1828.9,129.177C1828.72,124.546 1828.33,112.906 1828.98,109.076C1829.46,106.287 1833.17,104.894 1833.91,102.165C1834.47,100.116 1834.27,95.692 1834.08,93.074L1766.82,93.074L1728,93.074C1726.94,93.074 1725.92,92.653 1725.17,91.903C1724.42,91.153 1724,90.135 1724,89.074C1724,86.971 1724,84.401 1724,82.298C1724,81.237 1723.58,80.22 1722.83,79.47C1722.08,78.719 1721.06,78.298 1720,78.298C1716.71,78.298 1712.2,78.298 1709.72,78.298C1708.56,78.298 1707.46,77.796 1706.7,76.921C1702.9,72.555 1691.19,59.074 1687.72,55.076C1687.09,54.348 1686.74,53.417 1686.74,52.453L1686.74,0L2716.07,0L2716.07,52.453C2716.07,53.417 2715.72,54.348 2715.09,55.076C2711.62,59.074 2699.91,72.555 2696.11,76.921C2695.35,77.796 2694.25,78.298 2693.09,78.298C2690.61,78.298 2686.1,78.298 2682.81,78.298C2681.75,78.298 2680.73,78.719 2679.98,79.47C2679.23,80.22 2678.81,81.237 2678.81,82.298C2678.81,84.401 2678.81,86.971 2678.81,89.074C2678.81,90.135 2678.39,91.153 2677.64,91.903C2676.89,92.653 2675.87,93.074 2674.81,93.074L2642.01,93.074L2642.01,110.695C2642.01,111.037 2642.07,111.375 2642.18,111.698C2642.45,112.426 2642.99,113.032 2643.69,113.362C2643.97,113.49 2644.25,113.574 2644.55,113.617C2644.63,113.628 2644.72,113.636 2644.8,113.64C2645.07,113.652 2645.35,113.644 2645.61,113.644C2645.88,113.644 2646.14,113.654 2646.4,113.674C2647.41,113.749 2648.42,113.968 2649.37,114.322C2650.82,114.862 2652.15,115.716 2653.24,116.811C2654.4,117.969 2655.29,119.388 2655.82,120.936C2656.08,121.687 2656.26,122.467 2656.35,123.256C2656.39,123.611 2656.4,123.966 2656.41,124.323C2656.51,140.606 2656.46,156.89 2656.43,173.174C2656.75,173.411 2657.05,173.676 2657.33,173.966C2658.02,174.693 2658.55,175.569 2658.88,176.518C2659.05,177.029 2659.17,177.56 2659.22,178.098C2659.24,178.329 2659.25,178.559 2659.26,178.791L2659.26,198.084C2659.25,198.393 2659.24,198.7 2659.2,199.007C2659.09,199.772 2658.86,200.52 2658.52,201.21C2658.21,201.832 2657.81,202.406 2657.33,202.91C2656.64,203.637 2655.79,204.211 2654.85,204.584C2653.85,204.985 2652.76,205.149 2651.68,205.06C2650.99,205.003 2650.3,204.842 2649.66,204.584C2648.87,204.269 2648.14,203.809 2647.51,203.234C2646.83,202.607 2646.28,201.844 2645.89,201.002C2645.6,200.37 2645.41,199.696 2645.32,199.007C2645.28,198.7 2645.26,198.393 2645.26,198.084L2645.26,178.791C2645.26,178.559 2645.27,178.329 2645.29,178.098C2645.35,177.483 2645.49,176.877 2645.71,176.3C2646.07,175.362 2646.63,174.505 2647.35,173.801C2647.53,173.624 2647.72,173.458 2647.91,173.303L2647.91,124.471C2647.91,124.2 2647.87,123.933 2647.78,123.678C2647.57,123.113 2647.15,122.641 2646.61,122.378C2646.4,122.275 2646.17,122.206 2645.94,122.169C2645.87,122.159 2645.79,122.151 2645.71,122.147C2645.45,122.136 2645.19,122.144 2644.93,122.144C2644.66,122.144 2644.38,122.133 2644.1,122.113C2643.03,122.033 2641.97,121.801 2640.96,121.426C2639.38,120.839 2637.94,119.9 2636.76,118.693C2635.59,117.488 2634.68,116.024 2634.14,114.432C2633.86,113.638 2633.68,112.813 2633.58,111.978C2633.54,111.603 2633.52,111.227 2633.51,110.849C2633.48,104.925 2633.49,99 2633.5,93.074L2567.91,93.074L2564.49,105.186C2564,106.909 2562.43,108.098 2560.64,108.098L2552.3,108.098L2552.3,111.448C2552.3,112.268 2552.05,113.068 2551.58,113.74C2550.76,114.908 2549.4,116.854 2548.29,118.437C2547.17,120.042 2545.34,120.999 2543.38,120.999L2540.47,120.999L2540.47,123.297C2540.47,124.354 2539.9,125.277 2539.04,125.769C2539.06,314.76 2540.41,738.393 2540.99,868.565C2541.02,876.397 2541.56,888.837 2541.99,897.694L2572.5,897.564C2574.86,897.554 2577.12,898.542 2578.72,900.285C2580.32,902.028 2581.11,904.365 2580.9,906.722L2580.24,913.949C2580.84,914.052 2581.43,914.166 2582.01,914.292C2584.11,914.745 2586.18,915.351 2588.18,916.149C2588.74,916.371 2589.29,916.608 2589.83,916.861C2590.28,917.069 2590.72,917.289 2591.15,917.52C2594.03,919.044 2596.68,921.097 2598.58,923.768C2598.92,924.253 2599.24,924.756 2599.52,925.276C2599.89,925.936 2600.21,926.623 2600.47,927.33C2600.81,928.243 2601.06,929.19 2601.21,930.153C2601.3,930.72 2601.36,931.293 2601.38,931.867C2601.4,932.347 2601.4,932.829 2601.38,933.31C2601.35,934.13 2601.28,934.948 2601.16,935.76C2600.87,937.809 2600.3,939.818 2599.45,941.708C2598.4,944.041 2596.94,946.18 2595.16,948.009C2594.38,948.808 2593.53,949.548 2592.65,950.224C2591.9,950.793 2591.12,951.316 2590.31,951.795C2589.62,952.203 2588.91,952.577 2588.18,952.92C2584.51,954.659 2580.49,955.551 2576.45,955.879L2575.7,964.079C2575.31,968.411 2571.68,971.727 2567.33,971.721C2552.78,971.701 2521.4,971.657 2506.87,971.636C2502.53,971.63 2498.91,968.32 2498.52,963.998C2497.28,950.328 2494.67,921.713 2493.33,907.027C2493.12,904.683 2493.89,902.357 2495.48,900.615C2497.06,898.873 2499.3,897.875 2501.66,897.865L2534.18,897.727ZM2579.3,924.359L2577.41,945.308C2577.92,945.235 2578.44,945.148 2578.95,945.046C2579.36,944.966 2579.75,944.877 2580.15,944.777C2582.62,944.155 2585.03,943.114 2586.97,941.437C2588.04,940.507 2588.95,939.389 2589.62,938.133C2590.11,937.201 2590.47,936.201 2590.7,935.171C2590.85,934.488 2590.94,933.793 2590.97,933.095C2590.99,932.814 2590.99,932.531 2590.98,932.25C2590.97,932.018 2590.94,931.786 2590.89,931.559C2590.64,930.407 2589.91,929.431 2589.07,928.641C2588.89,928.481 2588.72,928.326 2588.53,928.178C2588.33,928.015 2588.12,927.857 2587.91,927.707C2587.63,927.514 2587.35,927.331 2587.06,927.158C2586.7,926.939 2586.33,926.735 2585.95,926.544C2585.42,926.277 2584.87,926.035 2584.32,925.814C2583.65,925.547 2582.97,925.312 2582.29,925.103C2581.3,924.804 2580.31,924.559 2579.3,924.359ZM1733.16,16.072C1739.93,16.072 1745.43,21.571 1745.43,28.343C1745.43,35.116 1739.93,40.614 1733.16,40.614C1726.39,40.614 1720.89,35.116 1720.89,28.343C1720.89,21.571 1726.39,16.072 1733.16,16.072ZM1763.07,22.59C1766.25,22.59 1768.82,25.168 1768.82,28.343C1768.82,31.518 1766.25,34.096 1763.07,34.096C1759.9,34.096 1757.32,31.518 1757.32,28.343C1757.32,25.168 1759.9,22.59 1763.07,22.59ZM1781.27,22.59C1784.45,22.59 1787.03,25.168 1787.03,28.343C1787.03,31.518 1784.45,34.096 1781.27,34.096C1778.1,34.096 1775.52,31.518 1775.52,28.343C1775.52,25.168 1778.1,22.59 1781.27,22.59ZM1799.48,22.59C1802.65,22.59 1805.23,25.168 1805.23,28.343C1805.23,31.518 1802.65,34.096 1799.48,34.096C1796.3,34.096 1793.72,31.518 1793.72,28.343C1793.72,25.168 1796.3,22.59 1799.48,22.59Z" style="fill:rgb(183,172,152);"/>
                </g>
            </g>
        </g>
    </g>
</svg>
