<?xml version="1.0" encoding="UTF-8" standalone="no"?>
<!DOCTYPE svg PUBLIC "-//W3C//DTD SVG 1.1//EN" "http://www.w3.org/Graphics/SVG/1.1/DTD/svg11.dtd">
<svg width="100%" height="100%" viewBox="0 0 36 36" version="1.1" xmlns="http://www.w3.org/2000/svg" xmlns:xlink="http://www.w3.org/1999/xlink" xml:space="preserve" style="fill-rule:evenodd;clip-rule:evenodd;stroke-linejoin:round;stroke-miterlimit:1.41421;">
    <g transform="matrix(1,0,0,1,-5852.78,-1582.84)">
        <g id="favicon" transform="matrix(0.340876,0,0,0.349367,3881.44,1029.85)">
            <rect x="5783.17" y="1582.84" width="105.61" height="103.044" style="fill:none;"/>
            <clipPath id="_clip1">
                <rect x="5783.17" y="1582.84" width="105.61" height="103.044"/>
            </clipPath>
            <g clip-path="url(#_clip1)">
                <g transform="matrix(0.976975,0,0,3.23041,5558.62,950.379)">
                    <g transform="matrix(1.24474,0,0,0.296439,94.4051,12.0619)">
                        <path d="M179.191,645.775C179.363,643.43 178.728,641.104 177.443,639.368C176.158,637.633 174.342,636.65 172.442,636.66C158.661,636.732 129.267,636.887 115.531,636.96C113.639,636.97 111.838,637.962 110.566,639.696C109.294,641.43 108.667,643.746 108.839,646.08C109.914,660.698 112.009,689.182 113.01,702.79C113.326,707.091 116.234,710.386 119.721,710.392C131.388,710.413 156.604,710.457 168.288,710.477C171.783,710.483 174.703,707.182 175.018,702.87C176.018,689.186 178.115,660.503 179.191,645.775Z" style="fill:rgb(183,172,152);"/>
                    </g>
                    <g transform="matrix(1.15488,0,0,0.241014,-108.098,34.7561)">
                        <path d="M360.861,708.096C361.617,708.106 362.372,708.136 363.127,708.197C365.249,708.369 367.365,708.756 369.443,709.388C371.263,709.942 373.057,710.685 374.787,711.662C375.268,711.934 375.743,712.224 376.213,712.533C376.6,712.789 376.983,713.058 377.36,713.34C379.85,715.206 382.146,717.72 383.786,720.991C384.083,721.584 384.358,722.2 384.607,722.836C384.924,723.644 385.198,724.485 385.426,725.351C385.72,726.469 385.935,727.629 386.067,728.808C386.145,729.502 386.194,730.203 386.215,730.905C386.232,731.494 386.228,732.084 386.214,732.672C386.189,733.676 386.126,734.678 386.026,735.672C385.772,738.181 385.275,740.641 384.542,742.954C383.636,745.811 382.372,748.429 380.825,750.669C380.149,751.647 379.421,752.553 378.652,753.381C378.004,754.077 377.328,754.718 376.628,755.304C376.03,755.803 375.417,756.262 374.79,756.682C371.181,759.096 367.187,760.177 363.217,760.429C362.443,760.478 361.668,760.494 360.893,760.486L360.694,760.482L355.999,760.377L356.142,747.637C357.807,747.674 359.471,747.729 361.135,747.746C361.395,747.747 361.653,747.744 361.912,747.739C362.549,747.721 363.185,747.682 363.82,747.612C364.36,747.552 364.898,747.471 365.435,747.366C365.891,747.276 366.346,747.168 366.797,747.041C367.143,746.944 367.487,746.834 367.829,746.713C369.966,745.951 372.054,744.676 373.733,742.623C374.665,741.484 375.451,740.115 376.029,738.577C376.458,737.437 376.771,736.212 376.966,734.951C377.096,734.115 377.174,733.264 377.202,732.41C377.213,732.065 377.221,731.719 377.209,731.374C377.198,731.09 377.173,730.807 377.131,730.529C376.918,729.119 376.287,727.923 375.553,726.957C375.404,726.76 375.249,726.57 375.09,726.39C374.914,726.19 374.734,725.997 374.549,725.813C374.311,725.576 374.067,725.353 373.819,725.141C373.504,724.873 373.181,724.623 372.852,724.389C372.392,724.062 371.921,723.765 371.443,723.495C370.865,723.168 370.277,722.88 369.682,722.624C368.645,722.178 367.587,721.829 366.52,721.56C364.633,721.084 362.72,720.863 360.804,720.838L356.056,720.816L356.085,708.074C357.677,708.081 359.269,708.089 360.861,708.096Z" style="fill:rgb(183,172,152);fill-rule:nonzero;"/>
                    </g>
                </g>
            </g>
        </g>
    </g>
</svg>
