<?xml version="1.0" encoding="UTF-8" standalone="no"?>
<!DOCTYPE svg PUBLIC "-//W3C//DTD SVG 1.1//EN" "http://www.w3.org/Graphics/SVG/1.1/DTD/svg11.dtd">
<svg width="100%" height="100%" viewBox="0 0 33 33" version="1.1" xmlns="http://www.w3.org/2000/svg" xmlns:xlink="http://www.w3.org/1999/xlink" xml:space="preserve" style="fill-rule:evenodd;clip-rule:evenodd;stroke-linejoin:round;stroke-miterlimit:1.41421;">
    <g transform="matrix(1,0,0,1,-5581.92,-2058.6)">
        <g id="icon-time" transform="matrix(0.597537,0,0,0.679838,2168.23,766.144)">
            <rect x="5712.93" y="1901.13" width="55.227" height="48.541" style="fill:none;"/>
            <clipPath id="_clip1">
                <rect x="5712.93" y="1901.13" width="55.227" height="48.541"/>
            </clipPath>
            <g clip-path="url(#_clip1)">
                <g transform="matrix(1.69893,0,0,1.49326,5307.08,-1162.58)">
                    <g>
                        <path d="M255.136,2051.7C264.107,2051.7 271.39,2058.98 271.39,2067.95C271.39,2076.92 264.107,2084.2 255.136,2084.2C246.166,2084.2 238.883,2076.92 238.883,2067.95C238.883,2058.98 246.166,2051.7 255.136,2051.7ZM253.896,2068.09C253.893,2068.07 253.89,2068.04 253.888,2068.01C253.819,2065.28 253.886,2062.54 253.886,2059.81C253.89,2059.68 253.905,2059.56 253.944,2059.43C254.052,2059.09 254.311,2058.8 254.643,2058.66C254.781,2058.6 254.924,2058.57 255.073,2058.56C255.136,2058.56 255.136,2058.56 255.2,2058.56C255.348,2058.57 255.492,2058.6 255.629,2058.66C255.942,2058.79 256.191,2059.05 256.309,2059.37C256.353,2059.49 256.375,2059.62 256.385,2059.74C256.443,2062.05 256.404,2064.36 256.391,2066.67C258.707,2066.63 261.024,2066.64 263.34,2066.7C263.574,2066.72 263.796,2066.79 263.99,2066.92C264.341,2067.17 264.546,2067.58 264.525,2068.01C264.518,2068.14 264.492,2068.26 264.448,2068.38C264.404,2068.5 264.342,2068.61 264.265,2068.71C264.161,2068.85 264.031,2068.96 263.883,2069.04C263.714,2069.14 263.531,2069.18 263.34,2069.2C260.606,2069.27 257.871,2069.2 255.136,2069.2C255.109,2069.2 255.082,2069.2 255.055,2069.19C254.975,2069.19 254.896,2069.18 254.819,2069.16C254.719,2069.13 254.622,2069.09 254.53,2069.04C254.47,2069.01 254.412,2068.97 254.359,2068.93L254.355,2068.92L254.353,2068.92L254.353,2068.92L254.352,2068.92C254.342,2068.91 254.332,2068.91 254.322,2068.9C254.314,2068.89 254.306,2068.88 254.299,2068.88L254.298,2068.88L254.298,2068.88L254.295,2068.87L254.291,2068.87L254.29,2068.87L254.289,2068.87L254.287,2068.87L254.283,2068.86L254.281,2068.86L254.28,2068.86L254.278,2068.86L254.275,2068.85L254.272,2068.85L254.271,2068.85L254.269,2068.85L254.268,2068.85L254.264,2068.84L254.262,2068.84L254.261,2068.84L254.26,2068.84L254.255,2068.84L254.253,2068.83L254.253,2068.83L254.252,2068.83C254.245,2068.82 254.238,2068.82 254.23,2068.81C254.222,2068.8 254.213,2068.79 254.204,2068.78L254.204,2068.78L254.203,2068.78L254.202,2068.78L254.199,2068.77C254.153,2068.72 254.112,2068.67 254.076,2068.61C254.02,2068.52 253.977,2068.43 253.947,2068.33C253.923,2068.25 253.906,2068.17 253.896,2068.09Z" style="fill:rgb(183,172,152);"/>
                    </g>
                </g>
            </g>
        </g>
    </g>
</svg>
