<?xml version="1.0" encoding="UTF-8" standalone="no"?>
<!DOCTYPE svg PUBLIC "-//W3C//DTD SVG 1.1//EN" "http://www.w3.org/Graphics/SVG/1.1/DTD/svg11.dtd">
<svg width="100%" height="100%" viewBox="0 0 36 61" version="1.1" xmlns="http://www.w3.org/2000/svg" xmlns:xlink="http://www.w3.org/1999/xlink" xml:space="preserve" style="fill-rule:evenodd;clip-rule:evenodd;stroke-linejoin:round;stroke-miterlimit:1.41421;">
    <g transform="matrix(1,0,0,1,-5581.92,-1888.63)">
        <g id="icon-award" transform="matrix(6.14484e-17,-1.00353,1.09091,6.67989e-17,3507.96,7538.91)">
            <rect x="5569.63" y="1901.13" width="60.786" height="33" style="fill:none;"/>
            <clipPath id="_clip1">
                <rect x="5569.63" y="1901.13" width="60.786" height="33"/>
            </clipPath>
            <g clip-path="url(#_clip1)">
                <g transform="matrix(6.05183e-17,0.909175,-0.994981,5.6045e-17,7429.42,1685.67)">
                    <path d="M243.142,1839.84C239.369,1836.52 236.988,1831.65 236.988,1826.23C236.988,1816.21 245.12,1808.08 255.136,1808.08C265.153,1808.08 273.285,1816.21 273.285,1826.23C273.285,1831.65 270.903,1836.52 267.131,1839.84L272.121,1865.85C272.206,1866.29 271.983,1866.73 271.578,1866.93C271.173,1867.13 270.685,1867.03 270.387,1866.69C268.703,1864.78 266.537,1862.31 265.242,1860.84C265.008,1860.57 264.651,1860.45 264.302,1860.52C263.954,1860.58 263.667,1860.83 263.549,1861.16C262.891,1863.01 261.792,1866.1 260.937,1868.51C260.786,1868.93 260.369,1869.2 259.919,1869.17C259.469,1869.14 259.098,1868.8 259.013,1868.36L255.136,1848.16L251.26,1868.36C251.175,1868.8 250.804,1869.14 250.354,1869.17C249.904,1869.2 249.487,1868.93 249.336,1868.51C248.481,1866.1 247.381,1863.01 246.724,1861.16C246.605,1860.83 246.319,1860.58 245.97,1860.52C245.622,1860.45 245.265,1860.57 245.031,1860.84C243.736,1862.31 241.57,1864.78 239.886,1866.69C239.588,1867.03 239.1,1867.13 238.695,1866.93C238.289,1866.73 238.067,1866.29 238.152,1865.85L243.142,1839.84Z" style="fill:rgb(183,172,152);"/>
                </g>
            </g>
        </g>
    </g>
</svg>
